<svg width="40" height="40" viewBox="0 0 40 40" fill="none" xmlns="http://www.w3.org/2000/svg">
<rect width="40" height="40" rx="4" fill="#141D4C"/>
<path d="M27.9198 20.3628L18.8137 19.8549L27.887 19.087L27.8648 18.8275L18.7788 19.5975L27.6544 17.5691L27.5978 17.3159L18.7064 19.3486L27.214 16.0995L27.122 15.8575L18.5991 19.1114L26.5764 14.7048L26.4516 14.476L18.4611 18.8911L25.748 13.4135L25.5946 13.2044L18.2946 18.6911L24.7509 12.2496L24.569 12.0644L18.1016 18.5175L23.6026 11.2354L23.3964 11.0789L17.8848 18.3721L22.3226 10.3926L22.0969 10.2674L17.6522 18.2596L20.9396 9.73718L20.6985 9.64483L17.4048 18.1805L19.4804 9.28182L19.2282 9.22237L17.1484 18.1364L17.97 9.03291L17.7141 9.01115L16.8898 18.128L16.4426 9L16.1841 9.01115L16.6334 18.1566L14.9242 9.17832L14.6699 9.22662L16.3813 18.2203L13.4449 9.57L13.1991 9.65332L16.1402 18.3169L12.0333 10.1618L11.8013 10.2785L15.9165 18.449L10.7185 10.9451L10.506 11.0942L15.713 18.6099L9.52421 11.9063L9.33547 12.0825L15.5332 18.7967L8.47636 13.024L8.31194 13.224L15.382 19.0079L7.59346 14.2781L7.4597 14.4999L15.2615 19.2388L6.89189 15.642L6.7888 15.8793L15.1737 19.4829L6.38594 17.0914L6.31774 17.3425L15.1193 19.7382L6.08776 18.5966L6.05498 18.854L15.104 19.9977L6 20.1299L6.00211 20.3894L15.1214 20.2572L6.12477 21.6589L6.16442 21.9163L15.1759 20.5125L6.4626 23.1571L6.53714 23.4055L15.2657 20.7566L7.00397 24.5938L7.1113 24.8289L15.3884 20.9854L7.73779 25.9397L7.87842 26.1578L15.5422 21.1966L8.65188 27.1699L8.82053 27.3679L15.722 21.3818L9.72776 28.2611L9.92284 28.4325L15.9276 21.5421L10.9443 29.1915L11.161 29.3321L16.1513 21.6721L12.2787 29.9419L12.5134 30.0518L16.3924 21.7687L13.7035 30.5008L13.9509 30.5751L16.6445 21.8303L15.1912 30.8526L15.4476 30.8946L16.9031 21.8568L16.7143 30.9933L16.9729 31.0002L17.1616 21.8457L18.2422 30.9206L18.5007 30.8898L17.418 21.7995L19.7453 30.6345L19.9953 30.5687L17.6633 21.7204L21.1939 30.142L21.4328 30.0428L17.8959 21.6037L22.5616 29.4531L22.7826 29.3194L18.1106 21.4588L23.8172 28.5779L24.0186 28.415L18.3036 21.2826L24.9417 27.5372L25.1188 27.3477L18.4674 21.0825L25.9103 26.3494L26.0594 26.1355L18.606 20.8623L26.7033 25.0359L26.8217 24.805L18.7085 20.625L27.3081 23.6257L27.3938 23.3816L18.781 20.374L27.7115 22.145L27.7617 21.8897L18.8164 20.1166L27.9066 20.6224L27.9198 20.3628Z" fill="url(#paint0_radial_15_7)"/>
<path d="M25.1781 28.2564C29.7168 28.2564 33.3965 24.5625 33.3965 20.0062C33.3965 15.4499 29.7168 11.7566 25.1781 11.7566C20.6393 11.7566 16.9602 15.4499 16.9602 20.0062C16.9602 24.5625 20.6393 28.2564 25.1781 28.2564Z" fill="url(#paint1_linear_15_7)"/>
<defs>
<radialGradient id="paint0_radial_15_7" cx="0" cy="0" r="1" gradientUnits="userSpaceOnUse" gradientTransform="translate(16.9599 20) scale(10.9598 11.0021)">
<stop stop-color="#58AADE"/>
<stop offset="1" stop-color="white"/>
</radialGradient>
<linearGradient id="paint1_linear_15_7" x1="30.9902" y1="25.8429" x2="19.3237" y2="14.2191" gradientUnits="userSpaceOnUse">
<stop stop-color="white"/>
<stop offset="1" stop-color="#58AADE"/>
</linearGradient>
</defs>
</svg>
