<svg width="40" height="40" viewBox="0 0 40 40" fill="none" xmlns="http://www.w3.org/2000/svg">
<rect width="40" height="40" rx="4" fill="#070E54"/>
<path d="M21.0118 6.27371C20.6715 6.27371 20.3931 6.54741 20.3931 6.88194C20.3931 7.21646 20.6715 7.49016 21.0118 7.49016C23.765 7.49016 26.3944 8.31127 28.5907 9.86226C34.4682 13.9982 35.8294 22.0268 31.6223 27.805C29.1785 31.1503 25.1879 33.1574 20.9809 33.1878C20.6406 33.1878 20.3622 33.4615 20.3622 33.7961C20.3622 34.1306 20.6406 34.4043 20.9809 34.4043C25.5901 34.4043 29.9518 32.2147 32.6122 28.5349C34.8395 25.4937 35.7056 21.7531 35.0869 18.0733C34.4682 14.3632 32.3956 11.1395 29.3022 8.94991C26.8893 7.18605 24.0124 6.27371 21.0118 6.27371Z" fill="#F4F0EC"/>
<path d="M19.5579 34.313C16.681 34.313 13.7732 33.4919 11.2675 31.7281C4.86409 27.1968 3.41017 18.4687 7.95752 12.1735C10.7416 8.34167 15.1034 6.33452 19.5579 6.33452V34.313Z" fill="#F4F0EC"/>
<path d="M19.5579 6C14.8559 6 10.4323 8.25045 7.71005 11.9911C3.03896 18.4079 4.55474 27.3792 11.1128 31.941C13.5876 33.6744 16.4954 34.5868 19.5579 34.5868C19.7435 34.5868 19.8672 34.4651 19.8672 34.2826V6.30411C19.8672 6.21288 19.8363 6.15206 19.7744 6.09123C19.7126 6.03041 19.6507 6 19.5579 6ZM19.2486 34.0089C16.4335 33.9481 13.7422 33.0662 11.4531 31.4848C5.20436 27.0751 3.75045 18.4991 8.23593 12.356C10.7725 8.85868 14.8868 6.72988 19.2795 6.63864V34.0089H19.2486Z" fill="#F4F0EC"/>
<path d="M21.0118 12.9946C20.6715 12.9946 20.3931 13.2683 20.3931 13.6029C20.3931 13.9374 20.6715 14.2111 21.0118 14.2111C22.3111 14.2111 23.5794 14.6064 24.6311 15.3363C27.4152 17.3131 28.0648 21.1449 26.085 23.8819C24.9095 25.4937 23.0225 26.4365 21.0118 26.4365C20.6715 26.4365 20.3931 26.7102 20.3931 27.0447C20.3931 27.3793 20.6715 27.653 21.0118 27.653C23.4247 27.653 25.6829 26.4973 27.0749 24.5814C29.4569 21.297 28.6835 16.7048 25.3426 14.3631C24.0743 13.4812 22.5895 12.9946 21.0118 12.9946Z" fill="#F4F0EC"/>
<path d="M21.1665 9.52773C20.8262 9.52773 20.5478 9.80143 20.5478 10.136C20.5478 10.4705 20.8262 10.7442 21.1665 10.7442C23.2081 10.7442 25.1879 11.3524 26.8275 12.5385C31.2201 15.61 32.241 21.6315 29.0857 25.9195C27.2605 28.4132 24.2909 29.9338 21.1355 29.9338C20.7953 29.9338 20.5169 30.2075 20.5169 30.542C20.5169 30.8766 20.7953 31.1503 21.1355 31.1503C24.693 31.1503 28.003 29.4472 30.0756 26.6494C33.6021 21.814 32.4575 15.0626 27.539 11.5957C25.6829 10.2272 23.4866 9.52773 21.1665 9.52773Z" fill="#F4F0EC"/>
</svg>
