<svg width="40" height="40" viewBox="0 0 40 40" fill="none" xmlns="http://www.w3.org/2000/svg">
<rect width="40" height="40" rx="4" fill="url(#paint0_linear_705_12)"/>
<path d="M22.7625 28.8049C20.2172 27.8307 17.5991 27.6809 15.1993 28.3553C13.5266 28.805 11.9267 29.7042 10.4723 30.8283L9.45411 31.7276L9.16322 32.0274L9.81773 32.6269C9.89045 32.6269 9.89046 32.7018 9.96318 32.7768C10.1086 32.9267 10.2541 33.0016 10.4723 33.1515L10.9086 33.4512L11.3449 33.0765C11.4176 33.0016 11.5631 32.8517 11.7085 32.7768C13.0176 31.6527 14.472 30.9033 15.9992 30.5286C17.9627 30.004 20.0717 30.0789 22.1807 30.9033C23.926 31.5777 27.4895 32.4021 31.7802 30.5286L31.9256 30.4536L32.1438 30.2288C32.1438 30.1539 32.2165 30.1539 32.2892 30.0789C32.6528 29.6293 33.0165 29.1796 33.3074 28.6551L34.7618 26.3319L32.4347 27.6808C29.0167 29.6293 25.8896 30.004 22.7625 28.8049Z" fill="white"/>
<path d="M12.7993 20.7119C14.7628 20.1874 16.8718 20.2623 18.9808 21.0866C21.3079 21.9859 27.2712 23.2599 33.9618 17.0399L35.4163 15.5411L35.2708 15.1664C35.1981 14.8666 35.0526 14.4919 34.9072 14.1172L34.5436 13.068L33.8163 13.8174C33.7436 13.9673 33.5982 14.0423 33.4527 14.1921C30.2529 17.5644 25.3077 21.0117 19.6353 18.9134C17.09 17.9392 14.472 17.7893 12.0721 18.4637C9.74494 19.1382 7.70869 20.4122 5.81788 22.2107V22.1358L4.72703 23.3348C4.72703 23.4098 4.65432 23.4098 4.5816 23.4847L4.36342 23.7095L4.43615 24.0093C4.50887 24.384 4.65431 24.7587 4.72703 25.1334L5.16338 26.3324L5.89061 25.3582C5.96333 25.2083 6.10878 25.1334 6.1815 24.9835C7.70869 23.5597 9.81767 21.5363 12.7993 20.7119Z" fill="white"/>
<path d="M5.74454 19.3629C7.41717 17.5643 9.30796 16.4402 11.3442 15.8407C13.3077 15.3161 15.4167 15.3911 17.5257 16.2154C24.0708 18.6884 29.7432 14.6417 32.2158 12.4684L33.1612 11.4942L33.5248 11.1944L33.2339 10.7448C33.0157 10.52 32.8703 10.2202 32.6521 9.92044L32.2158 9.32091L31.7067 9.8455C31.634 9.92044 31.4886 10.0703 31.4158 10.1453C28.3615 13.1429 23.6344 16.2154 18.2529 14.1171C15.7076 13.1429 13.0896 12.993 10.6897 13.6674C9.16252 14.1171 7.70805 14.8665 6.25359 15.8407L4.72639 17.1147C4.58095 17.2646 4.50822 17.3395 4.36278 17.4894L4.21734 17.6393V17.8641C4.14462 18.3887 4.14461 18.9132 4.07189 19.3629L3.99916 21.2364L5.23546 19.8875C5.38091 19.7376 5.52637 19.5128 5.74454 19.3629Z" fill="white"/>
<path d="M24.8696 33.9017C24.6515 33.8268 24.506 33.7518 24.2879 33.6769C21.7426 32.7027 19.1245 32.5528 16.7246 33.2272C16.2156 33.3771 15.7065 33.527 15.1975 33.7518L13.4521 34.5762L13.0158 34.801L14.4702 35.3256C14.9066 35.4754 15.3429 35.6253 15.7792 35.7752L15.9974 35.8502L16.2156 35.7752C16.4338 35.7003 16.6519 35.5504 16.8701 35.5504C17.0155 35.5504 17.161 35.4754 17.3064 35.4005C19.0518 34.9509 20.9426 34.9509 22.9788 35.6253C23.197 35.7003 23.3425 35.7752 23.5606 35.8502L23.9242 36L24.1424 35.9251C24.6515 35.7752 25.2333 35.6253 25.6696 35.4005L27.7058 34.6511L25.5969 34.1265C25.3787 34.0516 25.0878 33.9766 24.8696 33.9017Z" fill="white"/>
<path d="M36.0008 18.389L34.91 19.5131C34.7645 19.6629 34.6191 19.8128 34.4737 19.9627C31.492 22.8854 26.6923 26.0328 21.3107 23.9345C18.7654 22.9603 16.1474 22.8104 13.7475 23.4849C11.4931 24.1594 9.45684 25.3584 7.63876 27.157L6.69337 28.2061L6.40248 28.5808L6.69337 29.0305C6.91154 29.3302 7.05699 29.555 7.20244 29.8548L7.63876 30.5293L8.14783 29.8548C8.22056 29.7799 8.366 29.63 8.43872 29.555C10.1841 27.6066 12.0749 26.4075 14.2566 25.808C16.2201 25.2834 18.3291 25.3584 20.4381 26.1827C22.2561 26.8572 24.147 27.082 26.0378 26.8572C29.383 26.4825 32.7283 24.5341 35.2009 22.3608C35.3463 22.2109 35.4918 22.136 35.6372 21.9861L35.8554 21.7613V21.5365C35.8554 21.0868 35.9281 20.5622 35.9281 20.1126L36.0008 18.389Z" fill="white"/>
<path d="M8.35867 11.4939C8.79501 11.2691 9.30409 11.1192 9.74043 10.9693C11.704 10.4447 13.8129 10.5197 15.9219 11.344C17.3037 11.8686 18.6854 12.0934 20.2126 12.0934C23.267 12.0934 26.3213 10.9693 29.1575 8.79604L30.612 7.597L29.9575 7.07241C29.7393 6.84759 29.4484 6.62278 29.1575 6.4729L28.7212 6.17314L28.3576 6.4729C28.2121 6.54784 28.1394 6.69771 27.994 6.77265C24.1396 9.77025 20.2853 10.5946 16.6491 9.17074C14.0311 8.19652 11.4131 7.9717 8.79502 8.79604C8.57685 8.87098 8.35868 8.94591 8.06778 9.02085L7.92235 9.0958L7.70417 9.32061C7.70417 9.39555 7.63146 9.39556 7.55874 9.4705C7.26784 9.92014 6.90421 10.2948 6.61332 10.7445L5.23158 12.9177L7.48601 11.7187C7.84962 11.7187 8.1405 11.5688 8.35867 11.4939Z" fill="white"/>
<path d="M14.3253 6.39805L14.5435 6.473C15.4889 6.8477 16.9434 7.2224 18.7615 7.2224C20.6523 7.2224 22.4704 6.77275 24.2884 6.02335L26.5428 4.89925L25.0157 4.37468C24.5793 4.2248 24.143 4.07492 23.6339 3.99998H23.4157L23.1976 4.07491C22.9794 4.14985 22.7612 4.29974 22.5431 4.37468C20.3614 5.19903 18.1797 5.34891 16.0707 4.74938C15.8525 4.67444 15.6344 4.59949 15.4162 4.52455L15.198 4.44961L14.9798 4.52455C14.5435 4.67443 14.1072 4.82432 13.6708 5.04914L11.9982 5.79854L13.7436 6.32311C13.889 6.24817 14.1072 6.32311 14.3253 6.39805Z" fill="white"/>
<defs>
<linearGradient id="paint0_linear_705_12" x1="23.0208" y1="58.9583" x2="52.2076" y2="31.7133" gradientUnits="userSpaceOnUse">
<stop stop-color="#153042"/>
<stop offset="0.5" stop-color="#939FE1"/>
<stop offset="0.989583" stop-color="#F2A7A7"/>
</linearGradient>
</defs>
</svg>
