<svg width="312" height="61" viewBox="0 0 312 61" fill="none" xmlns="http://www.w3.org/2000/svg">
<path d="M35.4652 47.2844C30.6542 45.4273 25.7058 45.1416 21.1697 46.4273C18.0082 47.2844 14.9842 48.9987 12.235 51.1415L10.3106 52.8557L9.76078 53.4272L10.9979 54.57C11.1353 54.57 11.1354 54.7128 11.2728 54.8557C11.5477 55.1414 11.8227 55.2843 12.235 55.57L13.0597 56.1414L13.8845 55.4271C14.0219 55.2842 14.2969 54.9986 14.5718 54.8557C17.046 52.7129 19.7951 51.2843 22.6817 50.5701C26.3931 49.5701 30.3793 49.713 34.3656 51.2844C37.6645 52.57 44.3999 54.1414 52.5099 50.5701L52.7848 50.4272L53.1972 49.9987C53.1972 49.8558 53.3346 49.8558 53.4721 49.7129C54.1594 48.8558 54.8466 47.9987 55.3965 46.9987L58.1456 42.5702L53.747 45.1416C47.2865 48.8558 41.3759 49.5701 35.4652 47.2844Z" fill="url(#paint0_linear_45_2642)"/>
<path d="M16.6335 31.8571C20.3448 30.8571 24.3311 31 28.3173 32.5714C32.716 34.2856 43.9874 36.7142 56.6334 24.8573L59.3826 22.0002L59.1077 21.2859C58.9702 20.7145 58.6953 20.0002 58.4204 19.286L57.7331 17.286L56.3585 18.7145C56.2211 19.0002 55.9462 19.1431 55.6712 19.4288C49.6231 25.8572 40.2761 32.4285 29.5544 28.4286C24.7434 26.5715 19.795 26.2858 15.2589 27.5715C10.8603 28.8572 7.01151 31.2857 3.43763 34.7142V34.5713L1.37578 36.857C1.37578 36.9999 1.23835 36.9999 1.10089 37.1428L0.688497 37.5713L0.825962 38.1427C0.963419 38.857 1.23832 39.5713 1.37578 40.2855L2.20053 42.5712L3.5751 40.7141C3.71256 40.4284 3.98746 40.2855 4.12492 39.9998C7.01151 37.2856 10.9978 33.4285 16.6335 31.8571Z" fill="url(#paint1_linear_45_2642)"/>
<path d="M3.299 29.2855C6.46051 25.857 10.0344 23.7142 13.8831 22.5713C17.5945 21.5714 21.5807 21.7142 25.567 23.2856C37.9381 27.9998 48.6597 20.2857 53.3333 16.1429L55.1202 14.2858L55.8075 13.7144L55.2577 12.8573C54.8453 12.4287 54.5704 11.8573 54.158 11.2859L53.3333 10.143L52.3711 11.143C52.2336 11.2859 51.9587 11.5715 51.8212 11.7144C46.0481 17.4286 37.1134 23.2856 26.9416 19.2857C22.1306 17.4286 17.1821 17.1429 12.646 18.4286C9.75945 19.2857 7.01031 20.7142 4.26117 22.5713L1.37457 24.9999C1.09965 25.2856 0.962198 25.4284 0.687284 25.7142L0.412396 25.9998V26.4284C0.274939 27.4284 0.274922 28.4284 0.137465 29.2855L0 32.8569L2.33678 30.2855C2.6117 29.9998 2.88663 29.5712 3.299 29.2855Z" fill="url(#paint2_linear_45_2642)"/>
<path d="M39.4481 57.0001C39.0357 56.8572 38.7608 56.7144 38.3484 56.5715C33.5374 54.7144 28.589 54.4287 24.0529 55.7144C23.0907 56.0001 22.1285 56.2858 21.1663 56.7144L17.8673 58.2858L17.0426 58.7143L19.7917 59.7143C20.6165 60 21.4412 60.2858 22.266 60.5715L22.6783 60.7143L23.0907 60.5715C23.5031 60.4286 23.9154 60.1429 24.3278 60.1429C24.6027 60.1429 24.8776 60 25.1526 59.8572C28.4515 59.0001 32.0254 59.0001 35.8742 60.2857C36.2865 60.4286 36.5615 60.5715 36.9739 60.7143L37.6611 61L38.0735 60.8571C39.0357 60.5714 40.1354 60.2858 40.9601 59.8572L44.8089 58.4287L40.8226 57.4287C40.4103 57.2858 39.8604 57.143 39.4481 57.0001Z" fill="url(#paint3_linear_45_2642)"/>
<path d="M60.4875 27.429L58.4257 29.5718C58.1508 29.8575 57.8759 30.1432 57.601 30.4289C51.9652 36.0002 42.8931 42.0001 32.7213 38.0002C27.9103 36.1431 22.9618 35.8574 18.4258 37.1431C14.1646 38.4288 10.3158 40.7144 6.87934 44.1429L5.09242 46.1429L4.5426 46.8572L5.09242 47.7143C5.50479 48.2857 5.77972 48.7143 6.05464 49.2857L6.87934 50.5714L7.84156 49.2857C7.97902 49.1428 8.25392 48.8571 8.39138 48.7142C11.6903 45 15.2642 42.7144 19.3879 41.5715C23.0993 40.5716 27.0855 40.7144 31.0718 42.2858C34.5082 43.5715 38.0821 44.0001 41.656 43.5715C47.979 42.8572 54.302 39.143 58.9755 35.0003C59.2504 34.7146 59.5253 34.5717 59.8002 34.286L60.2126 33.8574V33.4289C60.2126 32.5717 60.3501 31.5718 60.3501 30.7146L60.4875 27.429Z" fill="url(#paint4_linear_45_2642)"/>
<path d="M8.24007 14.2852C9.06482 13.8567 10.027 13.571 10.8518 13.2852C14.5631 12.2853 18.5494 12.4281 22.5356 13.9995C25.1473 14.9995 27.759 15.4281 30.6456 15.4281C36.4188 15.4281 42.1919 13.2853 47.5527 9.14248L50.3019 6.8568L49.0648 5.85681C48.6524 5.42824 48.1026 4.9997 47.5527 4.71399L46.728 4.14258L46.0407 4.71399C45.7658 4.85685 45.6283 5.14254 45.3534 5.28539C38.0682 10.9996 30.783 12.571 23.9102 9.85675C18.9617 7.99965 14.0133 7.57108 9.06482 9.14248C8.65245 9.28533 8.24008 9.42816 7.69025 9.57102L7.41537 9.71388L7.00297 10.1424C7.00297 10.2853 6.86554 10.2853 6.72808 10.4282C6.17826 11.2853 5.49094 11.9996 4.94112 12.8567L2.32945 16.9995L6.59062 14.7138C7.2779 14.7138 7.8277 14.4281 8.24007 14.2852Z" fill="url(#paint5_linear_45_2642)"/>
<path d="M19.5179 4.57132L19.9302 4.71417C21.7172 5.42844 24.4663 6.14272 27.9028 6.14272C31.4766 6.14272 34.9131 5.28559 38.3495 3.85704L42.6106 1.71422L39.7241 0.714276C38.8993 0.428567 38.0745 0.142854 37.1123 0H36.7L36.2876 0.142817C35.8753 0.285672 35.4629 0.571422 35.0505 0.714276C30.9268 2.28567 26.8031 2.57139 22.8168 1.42855C22.4045 1.2857 21.9921 1.14281 21.5797 0.999954L21.1674 0.857093L20.755 0.999954C19.9302 1.28566 19.1055 1.57139 18.2808 1.99995L15.1192 3.42849L18.4182 4.42844C18.6932 4.28559 19.1055 4.42846 19.5179 4.57132Z" fill="url(#paint6_linear_45_2642)"/>
<path d="M83.0461 26.5114H77.4989V22.8335H83.0461V20.7615C83.0461 17.9643 83.748 15.8232 85.1519 14.3383C86.5901 12.8188 88.5418 12.0591 91.0072 12.0591H95.373V15.7369H91.5722C89.9971 15.7369 88.8329 16.1168 88.0796 16.8765C87.3605 17.6363 87.001 18.8276 87.001 20.4507V22.8335H88.1309C90.3224 22.8335 92.531 22.6263 94.7567 22.2119L95.2703 25.838C93.1473 26.2869 90.6991 26.5114 87.9255 26.5114H87.001V49.2517H83.0461V26.5114Z" fill="url(#paint7_linear_45_2642)"/>
<path d="M97.1422 11.4375H101.148V49.2517H97.1422V11.4375Z" fill="url(#paint8_linear_45_2642)"/>
<path d="M117.053 49.5625C114.588 49.5625 112.448 49.0099 110.633 47.9048C108.818 46.7652 107.414 45.1767 106.421 43.1392C105.462 41.0672 104.983 38.6671 104.983 35.939C104.983 33.2108 105.462 30.828 106.421 28.7906C107.414 26.7185 108.818 25.13 110.633 24.0249C112.448 22.8853 114.588 22.3155 117.053 22.3155C119.553 22.3155 121.71 22.8853 123.525 24.0249C125.34 25.13 126.726 26.7185 127.685 28.7906C128.644 30.828 129.123 33.2108 129.123 35.939C129.123 38.6671 128.644 41.0672 127.685 43.1392C126.726 45.1767 125.34 46.7652 123.525 47.9048C121.71 49.0099 119.553 49.5625 117.053 49.5625ZM117.053 45.6256C119.656 45.6256 121.642 44.7796 123.011 43.0874C124.381 41.3953 125.066 39.0125 125.066 35.939C125.066 32.8655 124.381 30.4827 123.011 28.7906C121.642 27.0984 119.656 26.2523 117.053 26.2523C114.451 26.2523 112.465 27.0984 111.095 28.7906C109.76 30.4827 109.092 32.8655 109.092 35.939C109.092 39.0125 109.76 41.3953 111.095 43.0874C112.465 44.7796 114.451 45.6256 117.053 45.6256Z" fill="url(#paint9_linear_45_2642)"/>
<path d="M129.826 22.8335H134.192L140.818 44.745L147.29 22.8335H152.58L159.052 44.745L165.677 22.8335H170.043L161.774 49.2517H156.381L149.96 27.5474L143.489 49.2517H138.096L129.826 22.8335Z" fill="url(#paint10_linear_45_2642)"/>
<path d="M182.404 49.2517C179.939 49.2517 177.987 48.5092 176.549 47.0242C175.145 45.5393 174.443 43.381 174.443 40.5492V26.5114H168.896V22.8335H174.443V15.9441H178.398V22.8335H179.579C181.668 22.8335 183.774 22.6263 185.897 22.2119L186.462 25.7862C184.305 26.2696 181.959 26.5114 179.425 26.5114H178.398V40.4456C178.398 42.1032 178.775 43.3637 179.528 44.227C180.281 45.0558 181.428 45.4702 182.969 45.4702H186.41V49.2517H182.404Z" fill="url(#paint11_linear_45_2642)"/>
<path d="M189.392 11.4375H193.398V26.5632C194.288 25.1818 195.487 24.1458 196.994 23.4551C198.5 22.7299 200.212 22.3673 202.13 22.3673C204.972 22.3673 207.215 23.1961 208.858 24.8537C210.502 26.5113 211.324 28.8769 211.324 31.9504V49.2517H207.369V32.5202C207.369 30.5518 206.821 29.015 205.725 27.91C204.664 26.8049 203.174 26.2523 201.257 26.2523C199.75 26.2523 198.397 26.5804 197.199 27.2366C196.035 27.8927 195.11 28.8251 194.425 30.0338C193.741 31.2079 193.398 32.5374 193.398 34.0224V49.2517H189.392V11.4375Z" fill="url(#paint12_linear_45_2642)"/>
<path d="M226.702 49.5625C224.373 49.5625 222.302 49.0617 220.487 48.0603C218.672 47.0243 217.234 45.522 216.173 43.5536C215.145 41.5507 214.632 39.0988 214.632 36.198C214.632 33.4008 215.128 30.9489 216.121 28.8424C217.114 26.7358 218.535 25.13 220.384 24.0249C222.268 22.8853 224.425 22.3155 226.856 22.3155C230.383 22.3155 233.088 23.4033 234.971 25.579C236.855 27.7546 237.796 30.7762 237.796 34.644C237.796 35.4383 237.762 36.1462 237.693 36.7678L237.591 37.752H224.956C222.559 37.752 220.504 37.5621 218.792 37.1822C218.895 40.0485 219.648 42.1896 221.052 43.6054C222.49 45.0213 224.425 45.7292 226.856 45.7292C228.808 45.7292 230.366 45.3148 231.53 44.486C232.728 43.6227 233.362 42.4486 233.43 40.9636H237.231C237.231 42.6558 236.769 44.158 235.844 45.4702C234.92 46.7825 233.653 47.8012 232.044 48.5264C230.468 49.2171 228.688 49.5625 226.702 49.5625ZM233.687 34.0224C233.687 31.3978 233.105 29.4294 231.941 28.1172C230.777 26.7704 228.996 26.097 226.599 26.097C224.442 26.097 222.678 26.7531 221.309 28.0654C219.939 29.3431 219.1 31.1216 218.792 33.4008C220.504 33.8152 222.61 34.0224 225.11 34.0224H233.687Z" fill="url(#paint13_linear_45_2642)"/>
<path d="M250.092 49.5625C247.969 49.5625 246.068 49.1999 244.391 48.4747C242.713 47.7149 241.429 46.6098 240.538 45.1594C239.682 43.6745 239.391 41.896 239.665 39.824H243.62C243.312 41.6198 243.774 43.0702 245.007 44.1752C246.24 45.2803 248.054 45.8328 250.451 45.8328C252.232 45.8328 253.584 45.5048 254.509 44.8486C255.434 44.158 255.896 43.191 255.896 41.9478C255.896 40.8427 255.519 40.014 254.766 39.4614C254.047 38.8743 253.02 38.4254 251.684 38.1146L248.397 37.3894C246.959 37.0786 245.709 36.6987 244.647 36.2498C243.62 35.8009 242.73 35.0757 241.977 34.0742C241.223 33.0727 240.847 31.7259 240.847 30.0338C240.847 27.5819 241.686 25.6826 243.363 24.3357C245.041 22.9889 247.198 22.3155 249.835 22.3155C251.102 22.3155 252.283 22.4882 253.379 22.8335C254.475 23.1789 255.468 23.6969 256.358 24.3875C257.283 25.0782 258.036 25.9588 258.618 27.0294L255.279 29.1532C254.834 28.1862 254.115 27.4265 253.122 26.874C252.129 26.3214 250.965 26.0451 249.63 26.0451C248.226 26.0451 247.079 26.3732 246.188 27.0294C245.332 27.651 244.904 28.5661 244.904 29.7748C244.904 31.0525 245.315 31.9849 246.137 32.572C246.993 33.1245 248.106 33.5562 249.476 33.867L249.681 33.9188L252.66 34.5404L252.968 34.644C254.406 34.9893 255.622 35.3865 256.615 35.8354C257.608 36.2843 258.413 36.975 259.029 37.9074C259.68 38.8053 260.005 40.0139 260.005 41.5334C260.005 44.1234 259.063 46.1091 257.18 47.4904C255.297 48.8718 252.934 49.5625 250.092 49.5625Z" fill="url(#paint14_linear_45_2642)"/>
<path d="M272.469 49.5625C269.696 49.5625 267.47 48.7336 265.792 47.076C264.114 45.4184 263.276 43.0529 263.276 39.9794V22.8335H267.282V39.3578C267.282 41.3262 267.813 42.863 268.874 43.968C269.97 45.0731 271.408 45.6256 273.188 45.6256C274.592 45.6256 275.859 45.2976 276.989 44.6414C278.154 43.9853 279.061 43.0702 279.711 41.896C280.396 40.6874 280.739 39.3405 280.739 37.8556V22.8335H284.694V49.2517H280.79V45.263C279.9 46.6789 278.753 47.7495 277.349 48.4747C275.979 49.1999 274.353 49.5625 272.469 49.5625Z" fill="url(#paint15_linear_45_2642)"/>
<path d="M290.068 22.8335H294.074V26.5632C294.965 25.1818 296.163 24.1458 297.67 23.4551C299.177 22.7299 300.889 22.3673 302.806 22.3673C305.648 22.3673 307.891 23.1961 309.535 24.8537C311.178 26.5113 312 28.8769 312 31.9504V49.2517H308.045V32.5202C308.045 30.5518 307.497 29.015 306.401 27.91C305.34 26.8049 303.85 26.2523 301.933 26.2523C300.426 26.2523 299.074 26.5804 297.875 27.2366C296.711 27.8927 295.787 28.8251 295.102 30.0338C294.417 31.2079 294.074 32.5374 294.074 34.0224V49.2517H290.068V22.8335Z" fill="url(#paint16_linear_45_2642)"/>
<defs>
<linearGradient id="paint0_linear_45_2642" x1="179.563" y1="89.9115" x2="197.466" y2="4.43057" gradientUnits="userSpaceOnUse">
<stop stop-color="#153042"/>
<stop offset="0.5" stop-color="#939FE1"/>
<stop offset="0.989583" stop-color="#F2A7A7"/>
</linearGradient>
<linearGradient id="paint1_linear_45_2642" x1="179.563" y1="89.9115" x2="197.466" y2="4.43057" gradientUnits="userSpaceOnUse">
<stop stop-color="#153042"/>
<stop offset="0.5" stop-color="#939FE1"/>
<stop offset="0.989583" stop-color="#F2A7A7"/>
</linearGradient>
<linearGradient id="paint2_linear_45_2642" x1="179.563" y1="89.9115" x2="197.466" y2="4.43057" gradientUnits="userSpaceOnUse">
<stop stop-color="#153042"/>
<stop offset="0.5" stop-color="#939FE1"/>
<stop offset="0.989583" stop-color="#F2A7A7"/>
</linearGradient>
<linearGradient id="paint3_linear_45_2642" x1="179.563" y1="89.9115" x2="197.466" y2="4.43057" gradientUnits="userSpaceOnUse">
<stop stop-color="#153042"/>
<stop offset="0.5" stop-color="#939FE1"/>
<stop offset="0.989583" stop-color="#F2A7A7"/>
</linearGradient>
<linearGradient id="paint4_linear_45_2642" x1="179.563" y1="89.9115" x2="197.466" y2="4.43057" gradientUnits="userSpaceOnUse">
<stop stop-color="#153042"/>
<stop offset="0.5" stop-color="#939FE1"/>
<stop offset="0.989583" stop-color="#F2A7A7"/>
</linearGradient>
<linearGradient id="paint5_linear_45_2642" x1="179.563" y1="89.9115" x2="197.466" y2="4.43057" gradientUnits="userSpaceOnUse">
<stop stop-color="#153042"/>
<stop offset="0.5" stop-color="#939FE1"/>
<stop offset="0.989583" stop-color="#F2A7A7"/>
</linearGradient>
<linearGradient id="paint6_linear_45_2642" x1="179.563" y1="89.9115" x2="197.466" y2="4.43057" gradientUnits="userSpaceOnUse">
<stop stop-color="#153042"/>
<stop offset="0.5" stop-color="#939FE1"/>
<stop offset="0.989583" stop-color="#F2A7A7"/>
</linearGradient>
<linearGradient id="paint7_linear_45_2642" x1="179.563" y1="89.9115" x2="197.466" y2="4.43057" gradientUnits="userSpaceOnUse">
<stop stop-color="#153042"/>
<stop offset="0.5" stop-color="#939FE1"/>
<stop offset="0.989583" stop-color="#F2A7A7"/>
</linearGradient>
<linearGradient id="paint8_linear_45_2642" x1="179.563" y1="89.9115" x2="197.466" y2="4.43057" gradientUnits="userSpaceOnUse">
<stop stop-color="#153042"/>
<stop offset="0.5" stop-color="#939FE1"/>
<stop offset="0.989583" stop-color="#F2A7A7"/>
</linearGradient>
<linearGradient id="paint9_linear_45_2642" x1="179.563" y1="89.9115" x2="197.466" y2="4.43057" gradientUnits="userSpaceOnUse">
<stop stop-color="#153042"/>
<stop offset="0.5" stop-color="#939FE1"/>
<stop offset="0.989583" stop-color="#F2A7A7"/>
</linearGradient>
<linearGradient id="paint10_linear_45_2642" x1="179.563" y1="89.9115" x2="197.466" y2="4.43057" gradientUnits="userSpaceOnUse">
<stop stop-color="#153042"/>
<stop offset="0.5" stop-color="#939FE1"/>
<stop offset="0.989583" stop-color="#F2A7A7"/>
</linearGradient>
<linearGradient id="paint11_linear_45_2642" x1="179.563" y1="89.9115" x2="197.466" y2="4.43057" gradientUnits="userSpaceOnUse">
<stop stop-color="#153042"/>
<stop offset="0.5" stop-color="#939FE1"/>
<stop offset="0.989583" stop-color="#F2A7A7"/>
</linearGradient>
<linearGradient id="paint12_linear_45_2642" x1="179.563" y1="89.9115" x2="197.466" y2="4.43057" gradientUnits="userSpaceOnUse">
<stop stop-color="#153042"/>
<stop offset="0.5" stop-color="#939FE1"/>
<stop offset="0.989583" stop-color="#F2A7A7"/>
</linearGradient>
<linearGradient id="paint13_linear_45_2642" x1="179.563" y1="89.9115" x2="197.466" y2="4.43057" gradientUnits="userSpaceOnUse">
<stop stop-color="#153042"/>
<stop offset="0.5" stop-color="#939FE1"/>
<stop offset="0.989583" stop-color="#F2A7A7"/>
</linearGradient>
<linearGradient id="paint14_linear_45_2642" x1="179.563" y1="89.9115" x2="197.466" y2="4.43057" gradientUnits="userSpaceOnUse">
<stop stop-color="#153042"/>
<stop offset="0.5" stop-color="#939FE1"/>
<stop offset="0.989583" stop-color="#F2A7A7"/>
</linearGradient>
<linearGradient id="paint15_linear_45_2642" x1="179.563" y1="89.9115" x2="197.466" y2="4.43057" gradientUnits="userSpaceOnUse">
<stop stop-color="#153042"/>
<stop offset="0.5" stop-color="#939FE1"/>
<stop offset="0.989583" stop-color="#F2A7A7"/>
</linearGradient>
<linearGradient id="paint16_linear_45_2642" x1="179.563" y1="89.9115" x2="197.466" y2="4.43057" gradientUnits="userSpaceOnUse">
<stop stop-color="#153042"/>
<stop offset="0.5" stop-color="#939FE1"/>
<stop offset="0.989583" stop-color="#F2A7A7"/>
</linearGradient>
</defs>
</svg>
