<svg width="40" height="40" viewBox="0 0 40 40" fill="none" xmlns="http://www.w3.org/2000/svg">
<rect width="40" height="40" rx="4" fill="white"/>
<g clip-path="url(#clip0_355_5702)">
<path d="M9.80826 18.8479C8.86887 19.9215 8.39888 21.2679 8.39888 22.9098V34.9478H4.00006V16.7854L20.4853 4.99976C20.4853 4.99976 32.9776 14.0915 34.579 15.7965C36.181 17.5009 36.971 19.6475 36.971 22.2574V34.9688H32.5716V22.9098C32.5716 21.2679 32.1022 19.9215 31.1623 18.8479C30.2229 17.7743 20.4639 11.3975 20.4639 11.3975C20.4639 11.3975 10.7476 17.7743 9.80826 18.8479Z" fill="#14162B"/>
<path d="M12.7527 25.7358V25.7663C12.6754 29.1331 14.8704 32.2713 18.2246 33.2615C22.6609 34.5716 26.8035 32.2561 28.1946 28.6608C28.2874 28.4171 28.0092 28.2342 27.7928 28.3409C26.1388 29.1788 24.2839 29.651 22.3054 29.651C18.6729 29.651 15.4269 28.0667 13.2628 25.5835C13.201 25.5073 13.1237 25.4769 13.031 25.4769C12.8918 25.4769 12.7527 25.5683 12.7527 25.7358Z" fill="url(#paint0_linear_355_5702)"/>
</g>
<defs>
<linearGradient id="paint0_linear_355_5702" x1="12.7527" y1="29.5513" x2="28.2101" y2="29.5513" gradientUnits="userSpaceOnUse">
<stop stop-color="#662680"/>
<stop offset="1" stop-color="#EB8B7E"/>
</linearGradient>
<clipPath id="clip0_355_5702">
<rect width="33" height="30" fill="white" transform="translate(4 5)"/>
</clipPath>
</defs>
</svg>
