<svg width="288" height="32" viewBox="0 0 288 32" fill="none" xmlns="http://www.w3.org/2000/svg">
<path d="M19.7296 24.8049C17.1843 23.8307 14.5663 23.6809 12.1664 24.3553C10.4938 24.805 8.89387 25.7042 7.4394 26.8283L6.42126 27.7276L6.13037 28.0274L6.78488 28.6269C6.8576 28.6269 6.85761 28.7018 6.93033 28.7768C7.07578 28.9267 7.22123 29.0016 7.4394 29.1515L7.87572 29.4512L8.31207 29.0765C8.38479 29.0016 8.53024 28.8517 8.67568 28.7768C9.9847 27.6527 11.4392 26.9033 12.9664 26.5286C14.9299 26.004 17.0389 26.0789 19.1478 26.9033C20.8932 27.5777 24.4566 28.4021 28.7473 26.5286L28.8928 26.4536L29.1109 26.2288C29.1109 26.1539 29.1837 26.1539 29.2564 26.0789C29.62 25.6293 29.9836 25.1797 30.2745 24.6551L31.729 22.3319L29.4018 23.6808C25.9838 25.6293 22.8567 26.004 19.7296 24.8049Z" fill="url(#paint0_linear_2_5188)"/>
<path d="M9.76647 16.7119C11.73 16.1874 13.839 16.2623 15.9479 17.0866C18.2751 17.9859 24.2384 19.2599 30.9289 13.0399L32.3834 11.5411L32.2379 11.1664C32.1652 10.8666 32.0198 10.4919 31.8743 10.1172L31.5107 9.06805L30.7835 9.81746C30.7108 9.96734 30.5653 10.0423 30.4199 10.1922C27.22 13.5645 22.2749 17.0117 16.6024 14.9134C14.0571 13.9392 11.4391 13.7893 9.03924 14.4637C6.71209 15.1382 4.67584 16.4122 2.78503 18.2107V18.1358L1.69418 19.3348C1.69418 19.4098 1.62147 19.4098 1.54875 19.4847L1.33057 19.7095L1.40329 20.0093C1.47602 20.384 1.62146 20.7587 1.69418 21.1334L2.13053 22.3325L2.85776 21.3582C2.93048 21.2084 3.07592 21.1334 3.14865 20.9835C4.67584 19.5597 6.78481 17.5363 9.76647 16.7119Z" fill="url(#paint1_linear_2_5188)"/>
<path d="M2.71168 15.3629C4.38432 13.5643 6.27511 12.4402 8.31136 11.8407C10.2749 11.3161 12.3839 11.3911 14.4928 12.2154C21.0379 14.6884 26.7104 10.6417 29.1829 8.46841L30.1283 7.4942L30.4919 7.19443L30.2011 6.7448C29.9829 6.51998 29.8375 6.22022 29.6193 5.92046L29.1829 5.32092L28.6739 5.84551C28.6011 5.92045 28.4557 6.07032 28.383 6.14526C25.3286 9.14287 20.6016 12.2154 15.2201 10.1171C12.6748 9.14288 10.0567 8.993 7.65686 9.66746C6.12967 10.1171 4.6752 10.8665 3.22073 11.8407L1.69354 13.1147C1.54809 13.2646 1.47537 13.3395 1.32992 13.4894L1.18449 13.6393V13.8641C1.11177 14.3887 1.11176 14.9133 1.03904 15.3629L0.966309 17.2364L2.20261 15.8875C2.34806 15.7376 2.49351 15.5128 2.71168 15.3629Z" fill="url(#paint2_linear_2_5188)"/>
<path d="M21.8368 29.9017C21.6186 29.8268 21.4732 29.7518 21.255 29.6769C18.7097 28.7027 16.0916 28.5528 13.6918 29.2273C13.1827 29.3771 12.6737 29.527 12.1646 29.7518L10.4192 30.5762L9.98291 30.801L11.4374 31.3256C11.8737 31.4755 12.31 31.6253 12.7464 31.7752L12.9645 31.8502L13.1827 31.7752C13.4009 31.7003 13.6191 31.5504 13.8372 31.5504C13.9827 31.5504 14.1281 31.4755 14.2736 31.4005C16.0189 30.9509 17.9097 30.9509 19.946 31.6253C20.1642 31.7003 20.3096 31.7752 20.5278 31.8502L20.8914 32L21.1096 31.9251C21.6186 31.7752 22.2004 31.6253 22.6368 31.4005L24.673 30.6511L22.564 30.1265C22.3459 30.0516 22.055 29.9767 21.8368 29.9017Z" fill="url(#paint3_linear_2_5188)"/>
<path d="M32.968 14.389L31.8771 15.5131C31.7317 15.663 31.5863 15.8128 31.4408 15.9627C28.4592 18.8854 23.6594 22.0329 18.2779 19.9345C15.7326 18.9603 13.1145 18.8104 10.7147 19.4849C8.46026 20.1594 6.42399 21.3584 4.60591 23.157L3.66052 24.2061L3.36963 24.5808L3.66052 25.0305C3.87869 25.3302 4.02414 25.5551 4.16959 25.8548L4.60591 26.5293L5.11498 25.8548C5.18771 25.7799 5.33315 25.63 5.40587 25.555C7.15123 23.6066 9.04203 22.4076 11.2237 21.808C13.1873 21.2835 15.2962 21.3584 17.4052 22.1827C19.2233 22.8572 21.1141 23.082 23.0049 22.8572C26.3502 22.4825 29.6954 20.5341 32.168 18.3608C32.3135 18.2109 32.4589 18.136 32.6044 17.9861L32.8225 17.7613V17.5365C32.8225 17.0868 32.8953 16.5623 32.8953 16.1126L32.968 14.389Z" fill="url(#paint4_linear_2_5188)"/>
<path d="M5.32582 7.4939C5.76216 7.26908 6.27124 7.11919 6.70758 6.96931C8.67111 6.44473 10.7801 6.51967 12.8891 7.34401C14.2708 7.86859 15.6525 8.09341 17.1797 8.09341C20.2341 8.09341 23.2885 6.96932 26.1247 4.79606L27.5791 3.59702L26.9246 3.07243C26.7065 2.84761 26.4156 2.6228 26.1247 2.47292L25.6883 2.17316L25.3247 2.47292C25.1793 2.54786 25.1065 2.69773 24.9611 2.77267C21.1068 5.77027 17.2525 6.59462 13.6163 5.17076C10.9983 4.19654 8.3802 3.97172 5.76217 4.79606C5.544 4.871 5.32583 4.94593 5.03493 5.02087L4.8895 5.09581L4.67132 5.32063C4.67132 5.39557 4.59861 5.39557 4.52588 5.47051C4.23499 5.92015 3.87136 6.29487 3.58047 6.74451L2.19873 8.91776L4.45316 7.71872C4.81677 7.71872 5.10765 7.56884 5.32582 7.4939Z" fill="url(#paint5_linear_2_5188)"/>
<path d="M11.2925 2.39807L11.5106 2.47301C12.456 2.84771 13.9105 3.22241 15.7286 3.22241C17.6194 3.22241 19.4375 2.77277 21.2556 2.02337L23.51 0.899261L21.9828 0.374702C21.5465 0.224822 21.1101 0.07494 20.6011 0H20.3829L20.1647 0.0749207C19.9466 0.149861 19.7284 0.299762 19.5102 0.374702C17.3285 1.19904 15.1468 1.34893 13.0378 0.749405C12.8197 0.674465 12.6015 0.599507 12.3833 0.524567L12.1652 0.449623L11.947 0.524567C11.5107 0.674447 11.0743 0.824336 10.638 1.04916L8.96533 1.79855L10.7107 2.32312C10.8562 2.24818 11.0743 2.32313 11.2925 2.39807Z" fill="url(#paint6_linear_2_5188)"/>
<path d="M44.9029 13.9076H41.9681V11.9783H44.9029V10.8913C44.9029 9.42391 45.2742 8.30073 46.017 7.52174C46.7779 6.72464 47.8105 6.32609 49.1148 6.32609H51.4246V8.25543H49.4137C48.5804 8.25543 47.9644 8.45471 47.5659 8.85326C47.1855 9.25181 46.9952 9.87681 46.9952 10.7283V11.9783H47.5931C48.7525 11.9783 49.921 11.8696 51.0985 11.6522L51.3702 13.5544C50.2471 13.7899 48.9518 13.9076 47.4844 13.9076H46.9952V25.837H44.9029V13.9076Z" fill="url(#paint7_linear_2_5188)"/>
<path d="M52.3606 6H54.4802V25.837H52.3606V6Z" fill="url(#paint8_linear_2_5188)"/>
<path d="M62.8947 26C61.5904 26 60.4581 25.7101 59.498 25.1304C58.5379 24.5326 57.7951 23.6993 57.2697 22.6304C56.7625 21.5435 56.5089 20.2844 56.5089 18.8533C56.5089 17.4221 56.7625 16.1721 57.2697 15.1033C57.7951 14.0163 58.5379 13.183 59.498 12.6033C60.4581 12.0054 61.5904 11.7065 62.8947 11.7065C64.2172 11.7065 65.3585 12.0054 66.3187 12.6033C67.2788 13.183 68.0125 14.0163 68.5197 15.1033C69.027 16.1721 69.2806 17.4221 69.2806 18.8533C69.2806 20.2844 69.027 21.5435 68.5197 22.6304C68.0125 23.6993 67.2788 24.5326 66.3187 25.1304C65.3585 25.7101 64.2172 26 62.8947 26ZM62.8947 23.9348C64.2716 23.9348 65.3223 23.4909 66.0469 22.6033C66.7716 21.7156 67.1339 20.4656 67.1339 18.8533C67.1339 17.2409 66.7716 15.9909 66.0469 15.1033C65.3223 14.2156 64.2716 13.7717 62.8947 13.7717C61.5179 13.7717 60.4672 14.2156 59.7426 15.1033C59.036 15.9909 58.6828 17.2409 58.6828 18.8533C58.6828 20.4656 59.036 21.7156 59.7426 22.6033C60.4672 23.4909 61.5179 23.9348 62.8947 23.9348Z" fill="url(#paint9_linear_2_5188)"/>
<path d="M69.6526 11.9783H71.9623L75.4678 23.4728L78.8917 11.9783H81.6906L85.1145 23.4728L88.6199 11.9783H90.9297L86.5547 25.837H83.7015L80.3047 14.4511L76.8808 25.837H74.0276L69.6526 11.9783Z" fill="url(#paint10_linear_2_5188)"/>
<path d="M97.4695 25.837C96.1652 25.837 95.1326 25.4475 94.3717 24.6685C93.6289 23.8895 93.2576 22.7573 93.2576 21.2717V13.9076H90.3228V11.9783H93.2576V8.36414H95.3499V11.9783H95.975C97.08 11.9783 98.1941 11.8696 99.3173 11.6522L99.6163 13.5272C98.475 13.7808 97.234 13.9076 95.8934 13.9076H95.3499V21.2174C95.3499 22.087 95.5492 22.7482 95.9478 23.2011C96.3463 23.6359 96.9532 23.8533 97.7684 23.8533H99.5891V25.837H97.4695Z" fill="url(#paint11_linear_2_5188)"/>
<path d="M101.166 6H103.286V13.9348C103.757 13.2101 104.391 12.6667 105.188 12.3044C105.985 11.9239 106.891 11.7337 107.906 11.7337C109.409 11.7337 110.596 12.1685 111.465 13.038C112.335 13.9076 112.77 15.1486 112.77 16.7609V25.837H110.677V17.0598C110.677 16.0272 110.387 15.221 109.808 14.6413C109.246 14.0616 108.458 13.7717 107.444 13.7717C106.647 13.7717 105.931 13.9438 105.297 14.288C104.681 14.6322 104.192 15.1214 103.829 15.7554C103.467 16.3714 103.286 17.0688 103.286 17.8478V25.837H101.166V6Z" fill="url(#paint12_linear_2_5188)"/>
<path d="M120.906 26C119.674 26 118.578 25.7373 117.618 25.212C116.658 24.6685 115.897 23.8804 115.335 22.8478C114.792 21.7971 114.52 20.5109 114.52 18.9891C114.52 17.5217 114.783 16.2355 115.308 15.1304C115.833 14.0254 116.585 13.183 117.563 12.6033C118.56 12.0054 119.701 11.7065 120.987 11.7065C122.853 11.7065 124.284 12.2772 125.281 13.4185C126.277 14.5598 126.775 16.1449 126.775 18.1739C126.775 18.5906 126.757 18.962 126.721 19.288L126.667 19.8044H119.982C118.714 19.8044 117.627 19.7047 116.721 19.5054C116.775 21.0091 117.174 22.1322 117.917 22.875C118.677 23.6178 119.701 23.9891 120.987 23.9891C122.02 23.9891 122.844 23.7717 123.46 23.337C124.094 22.8841 124.429 22.2681 124.466 21.4891H126.476C126.476 22.3768 126.232 23.1649 125.743 23.8533C125.254 24.5417 124.583 25.0761 123.732 25.4565C122.898 25.8188 121.956 26 120.906 26ZM124.601 17.8478C124.601 16.471 124.293 15.4384 123.677 14.75C123.062 14.0435 122.119 13.6902 120.851 13.6902C119.71 13.6902 118.777 14.0344 118.052 14.7228C117.328 15.3931 116.884 16.3261 116.721 17.5217C117.627 17.7391 118.741 17.8478 120.063 17.8478H124.601Z" fill="url(#paint13_linear_2_5188)"/>
<path d="M133.28 26C132.157 26 131.152 25.8098 130.264 25.4294C129.377 25.0308 128.697 24.4511 128.226 23.6902C127.773 22.9112 127.619 21.9783 127.764 20.8913H129.857C129.694 21.8333 129.938 22.5942 130.59 23.1739C131.242 23.7536 132.203 24.0435 133.471 24.0435C134.413 24.0435 135.128 23.8714 135.617 23.5272C136.107 23.1649 136.351 22.6576 136.351 22.0054C136.351 21.4257 136.152 20.9909 135.753 20.7011C135.373 20.3931 134.829 20.1576 134.123 19.9946L132.384 19.6141C131.623 19.4511 130.962 19.2518 130.4 19.0163C129.857 18.7808 129.386 18.4004 128.987 17.875C128.588 17.3496 128.389 16.6431 128.389 15.7554C128.389 14.4692 128.833 13.4728 129.721 12.7663C130.608 12.0598 131.75 11.7065 133.145 11.7065C133.815 11.7065 134.44 11.7971 135.02 11.9783C135.599 12.1594 136.125 12.4312 136.596 12.7935C137.085 13.1558 137.483 13.6178 137.791 14.1794L136.025 15.2935C135.79 14.7862 135.409 14.3877 134.884 14.0978C134.358 13.808 133.742 13.663 133.036 13.663C132.293 13.663 131.686 13.8351 131.215 14.1794C130.762 14.5054 130.536 14.9855 130.536 15.6196C130.536 16.2899 130.753 16.779 131.188 17.087C131.641 17.3768 132.23 17.6033 132.954 17.7663L133.063 17.7935L134.639 18.1196L134.802 18.1739C135.563 18.3551 136.206 18.5634 136.732 18.7989C137.257 19.0344 137.683 19.3967 138.009 19.8859C138.353 20.3569 138.525 20.9909 138.525 21.788C138.525 23.1467 138.027 24.1884 137.03 24.913C136.034 25.6377 134.784 26 133.28 26Z" fill="url(#paint14_linear_2_5188)"/>
<path d="M145.12 26C143.652 26 142.475 25.5652 141.587 24.6956C140.699 23.8261 140.255 22.5851 140.255 20.9728V11.9783H142.375V20.6467C142.375 21.6794 142.656 22.4855 143.217 23.0652C143.797 23.6449 144.558 23.9348 145.5 23.9348C146.243 23.9348 146.913 23.7627 147.511 23.4185C148.127 23.0743 148.607 22.5942 148.951 21.9783C149.313 21.3442 149.495 20.6377 149.495 19.8587V11.9783H151.587V25.837H149.522V23.7446C149.051 24.4873 148.444 25.0489 147.701 25.4294C146.976 25.8098 146.116 26 145.12 26Z" fill="url(#paint15_linear_2_5188)"/>
<path d="M154.43 11.9783H156.55V13.9348C157.021 13.2101 157.655 12.6667 158.452 12.3044C159.249 11.9239 160.155 11.7337 161.17 11.7337C162.673 11.7337 163.86 12.1685 164.729 13.038C165.599 13.9076 166.034 15.1486 166.034 16.7609V25.837H163.941V17.0598C163.941 16.0272 163.652 15.221 163.072 14.6413C162.51 14.0616 161.722 13.7717 160.708 13.7717C159.911 13.7717 159.195 13.9438 158.561 14.288C157.945 14.6322 157.456 15.1214 157.094 15.7554C156.731 16.3714 156.55 17.0688 156.55 17.8478V25.837H154.43V11.9783Z" fill="url(#paint16_linear_2_5188)"/>
<path d="M177.002 26V9.19531H183.389C185.139 9.19531 186.499 9.64453 187.467 10.543C188.444 11.4414 188.932 12.6406 188.932 14.1406C188.932 15.6172 188.44 16.8438 187.456 17.8203C186.479 18.7969 185.116 19.2852 183.366 19.2852H178.948V26H177.002ZM178.948 17.4336H183.389C184.506 17.4336 185.374 17.1406 185.991 16.5547C186.608 15.9609 186.917 15.1797 186.917 14.2109C186.917 13.2656 186.604 12.5039 185.979 11.9258C185.362 11.3398 184.506 11.0469 183.413 11.0469H178.948V17.4336ZM195.272 26.1406H195.202C193.866 26.1406 192.768 25.7266 191.909 24.8984C191.049 24.0703 190.62 23.0469 190.62 21.8281C190.62 20.8281 190.913 20.0469 191.499 19.4844C192.084 18.9141 192.905 18.6289 193.959 18.6289H196.456C197.542 18.6289 198.397 18.8203 199.022 19.2031V17.7383C199.022 16.9648 198.752 16.3711 198.213 15.957C197.674 15.5352 196.92 15.3242 195.952 15.3242C194.256 15.3242 193.112 15.9375 192.518 17.1641L191.053 16.332C191.444 15.418 192.077 14.7227 192.952 14.2461C193.827 13.7617 194.858 13.5195 196.045 13.5195C197.569 13.5195 198.749 13.8828 199.584 14.6094C200.42 15.3281 200.838 16.3984 200.838 17.8203V26H199.045V24.418C198.663 24.9727 198.139 25.3984 197.475 25.6953C196.819 25.9922 196.084 26.1406 195.272 26.1406ZM192.471 21.8516C192.471 22.6094 192.76 23.2188 193.338 23.6797C193.917 24.1406 194.643 24.3711 195.518 24.3711H195.588C196.674 24.3711 197.518 24.1445 198.12 23.6914C198.721 23.2383 199.022 22.6172 199.022 21.8281C199.022 20.8516 198.452 20.3633 197.311 20.3633H194.03C192.991 20.3633 192.471 20.8594 192.471 21.8516ZM204.202 26V13.7656H206.077V15.582C206.397 14.9492 206.881 14.4727 207.53 14.1523C208.186 13.8242 208.959 13.6602 209.85 13.6602H210.905V15.4648H209.78C208.624 15.4648 207.717 15.8086 207.061 16.4961C206.405 17.1758 206.077 18.1211 206.077 19.332V26H204.202ZM219.975 26H218.1C216.936 26 216.022 25.6484 215.358 24.9453C214.702 24.2422 214.374 23.25 214.374 21.9688V15.4648H211.784V13.7656H214.374V10.5664H216.225V13.7656H216.776C217.667 13.7656 218.651 13.668 219.729 13.4727L219.999 15.125C218.913 15.3516 217.815 15.4648 216.706 15.4648H216.225V21.9219C216.225 23.4688 216.936 24.2422 218.358 24.2422H219.975V26ZM226.889 26.1406C225.202 26.1406 223.838 25.6055 222.799 24.5352C221.768 23.457 221.252 21.9297 221.252 19.9531C221.252 17.9766 221.768 16.4102 222.799 15.2539C223.838 14.0977 225.225 13.5195 226.959 13.5195C228.592 13.5195 229.85 14.0234 230.733 15.0312C231.624 16.0312 232.069 17.4297 232.069 19.2266C232.069 19.5312 232.038 20.0117 231.975 20.668H226.069C224.991 20.668 224.034 20.582 223.198 20.4102C223.229 21.7227 223.569 22.7109 224.217 23.375C224.874 24.0391 225.788 24.3711 226.959 24.3711C227.881 24.3711 228.62 24.1719 229.174 23.7734C229.737 23.375 230.022 22.8359 230.03 22.1562H231.811C231.811 23.3281 231.342 24.2852 230.405 25.0273C229.475 25.7695 228.303 26.1406 226.889 26.1406ZM223.198 18.6523C224.081 18.8477 225.065 18.9453 226.151 18.9453H230.159C230.159 16.5 229.053 15.2773 226.842 15.2773C225.834 15.2773 225.01 15.5742 224.37 16.168C223.737 16.7617 223.346 17.5898 223.198 18.6523ZM234.694 26V13.7656H236.569V15.4883C237.452 14.1914 238.811 13.543 240.647 13.543C241.991 13.543 243.042 13.9297 243.799 14.7031C244.565 15.4766 244.948 16.5703 244.948 17.9844V26H243.096V18.2422C243.096 17.3281 242.846 16.6172 242.346 16.1094C241.846 15.6016 241.147 15.3477 240.249 15.3477C239.186 15.3477 238.307 15.6875 237.612 16.3672C236.917 17.0391 236.569 17.8984 236.569 18.9453V26H234.694ZM252.249 26.1406H252.178C250.842 26.1406 249.745 25.7266 248.885 24.8984C248.026 24.0703 247.596 23.0469 247.596 21.8281C247.596 20.8281 247.889 20.0469 248.475 19.4844C249.061 18.9141 249.881 18.6289 250.936 18.6289H253.432C254.518 18.6289 255.374 18.8203 255.999 19.2031V17.7383C255.999 16.9648 255.729 16.3711 255.19 15.957C254.651 15.5352 253.897 15.3242 252.928 15.3242C251.233 15.3242 250.088 15.9375 249.495 17.1641L248.03 16.332C248.42 15.418 249.053 14.7227 249.928 14.2461C250.803 13.7617 251.834 13.5195 253.022 13.5195C254.545 13.5195 255.725 13.8828 256.561 14.6094C257.397 15.3281 257.815 16.3984 257.815 17.8203V26H256.022V24.418C255.639 24.9727 255.116 25.3984 254.452 25.6953C253.795 25.9922 253.061 26.1406 252.249 26.1406ZM249.448 21.8516C249.448 22.6094 249.737 23.2188 250.315 23.6797C250.893 24.1406 251.62 24.3711 252.495 24.3711H252.565C253.651 24.3711 254.495 24.1445 255.096 23.6914C255.698 23.2383 255.999 22.6172 255.999 21.8281C255.999 20.8516 255.428 20.3633 254.288 20.3633H251.006C249.967 20.3633 249.448 20.8594 249.448 21.8516ZM261.213 26V13.7656H263.077V26H261.213ZM261.084 11.3867V9.00781H263.229V11.3867H261.084ZM266.545 26V13.7656H268.42V15.582C268.741 14.9492 269.225 14.4727 269.874 14.1523C270.53 13.8242 271.303 13.6602 272.194 13.6602H273.249V15.4648H272.124C270.967 15.4648 270.061 15.8086 269.405 16.4961C268.749 17.1758 268.42 18.1211 268.42 19.332V26H266.545ZM280.022 26.1406C278.334 26.1406 276.971 25.6055 275.932 24.5352C274.901 23.457 274.385 21.9297 274.385 19.9531C274.385 17.9766 274.901 16.4102 275.932 15.2539C276.971 14.0977 278.358 13.5195 280.092 13.5195C281.725 13.5195 282.983 14.0234 283.866 15.0312C284.756 16.0312 285.202 17.4297 285.202 19.2266C285.202 19.5312 285.17 20.0117 285.108 20.668H279.202C278.124 20.668 277.167 20.582 276.331 20.4102C276.362 21.7227 276.702 22.7109 277.35 23.375C278.006 24.0391 278.92 24.3711 280.092 24.3711C281.014 24.3711 281.752 24.1719 282.307 23.7734C282.87 23.375 283.155 22.8359 283.163 22.1562H284.944C284.944 23.3281 284.475 24.2852 283.538 25.0273C282.608 25.7695 281.436 26.1406 280.022 26.1406ZM276.331 18.6523C277.213 18.8477 278.198 18.9453 279.284 18.9453H283.292C283.292 16.5 282.186 15.2773 279.975 15.2773C278.967 15.2773 278.143 15.5742 277.502 16.168C276.87 16.7617 276.479 17.5898 276.331 18.6523Z" fill="#ADACAC"/>
<defs>
<linearGradient id="paint0_linear_2_5188" x1="-51.5005" y1="38" x2="55.4248" y2="133.658" gradientUnits="userSpaceOnUse">
<stop stop-color="#153042"/>
<stop offset="0.5" stop-color="#939FE1"/>
<stop offset="0.989583" stop-color="#F2A7A7"/>
</linearGradient>
<linearGradient id="paint1_linear_2_5188" x1="-51.5005" y1="38" x2="55.4248" y2="133.658" gradientUnits="userSpaceOnUse">
<stop stop-color="#153042"/>
<stop offset="0.5" stop-color="#939FE1"/>
<stop offset="0.989583" stop-color="#F2A7A7"/>
</linearGradient>
<linearGradient id="paint2_linear_2_5188" x1="-51.5005" y1="38" x2="55.4248" y2="133.658" gradientUnits="userSpaceOnUse">
<stop stop-color="#153042"/>
<stop offset="0.5" stop-color="#939FE1"/>
<stop offset="0.989583" stop-color="#F2A7A7"/>
</linearGradient>
<linearGradient id="paint3_linear_2_5188" x1="-51.5005" y1="38" x2="55.4248" y2="133.658" gradientUnits="userSpaceOnUse">
<stop stop-color="#153042"/>
<stop offset="0.5" stop-color="#939FE1"/>
<stop offset="0.989583" stop-color="#F2A7A7"/>
</linearGradient>
<linearGradient id="paint4_linear_2_5188" x1="-51.5005" y1="38" x2="55.4248" y2="133.658" gradientUnits="userSpaceOnUse">
<stop stop-color="#153042"/>
<stop offset="0.5" stop-color="#939FE1"/>
<stop offset="0.989583" stop-color="#F2A7A7"/>
</linearGradient>
<linearGradient id="paint5_linear_2_5188" x1="-51.5005" y1="38" x2="55.4248" y2="133.658" gradientUnits="userSpaceOnUse">
<stop stop-color="#153042"/>
<stop offset="0.5" stop-color="#939FE1"/>
<stop offset="0.989583" stop-color="#F2A7A7"/>
</linearGradient>
<linearGradient id="paint6_linear_2_5188" x1="-51.5005" y1="38" x2="55.4248" y2="133.658" gradientUnits="userSpaceOnUse">
<stop stop-color="#153042"/>
<stop offset="0.5" stop-color="#939FE1"/>
<stop offset="0.989583" stop-color="#F2A7A7"/>
</linearGradient>
<linearGradient id="paint7_linear_2_5188" x1="-51.5005" y1="38" x2="55.4248" y2="133.658" gradientUnits="userSpaceOnUse">
<stop stop-color="#153042"/>
<stop offset="0.5" stop-color="#939FE1"/>
<stop offset="0.989583" stop-color="#F2A7A7"/>
</linearGradient>
<linearGradient id="paint8_linear_2_5188" x1="-51.5005" y1="38" x2="55.4248" y2="133.658" gradientUnits="userSpaceOnUse">
<stop stop-color="#153042"/>
<stop offset="0.5" stop-color="#939FE1"/>
<stop offset="0.989583" stop-color="#F2A7A7"/>
</linearGradient>
<linearGradient id="paint9_linear_2_5188" x1="-51.5005" y1="38" x2="55.4248" y2="133.658" gradientUnits="userSpaceOnUse">
<stop stop-color="#153042"/>
<stop offset="0.5" stop-color="#939FE1"/>
<stop offset="0.989583" stop-color="#F2A7A7"/>
</linearGradient>
<linearGradient id="paint10_linear_2_5188" x1="-51.5005" y1="38" x2="55.4248" y2="133.658" gradientUnits="userSpaceOnUse">
<stop stop-color="#153042"/>
<stop offset="0.5" stop-color="#939FE1"/>
<stop offset="0.989583" stop-color="#F2A7A7"/>
</linearGradient>
<linearGradient id="paint11_linear_2_5188" x1="-51.5005" y1="38" x2="55.4248" y2="133.658" gradientUnits="userSpaceOnUse">
<stop stop-color="#153042"/>
<stop offset="0.5" stop-color="#939FE1"/>
<stop offset="0.989583" stop-color="#F2A7A7"/>
</linearGradient>
<linearGradient id="paint12_linear_2_5188" x1="-51.5005" y1="38" x2="55.4248" y2="133.658" gradientUnits="userSpaceOnUse">
<stop stop-color="#153042"/>
<stop offset="0.5" stop-color="#939FE1"/>
<stop offset="0.989583" stop-color="#F2A7A7"/>
</linearGradient>
<linearGradient id="paint13_linear_2_5188" x1="-51.5005" y1="38" x2="55.4248" y2="133.658" gradientUnits="userSpaceOnUse">
<stop stop-color="#153042"/>
<stop offset="0.5" stop-color="#939FE1"/>
<stop offset="0.989583" stop-color="#F2A7A7"/>
</linearGradient>
<linearGradient id="paint14_linear_2_5188" x1="-51.5005" y1="38" x2="55.4248" y2="133.658" gradientUnits="userSpaceOnUse">
<stop stop-color="#153042"/>
<stop offset="0.5" stop-color="#939FE1"/>
<stop offset="0.989583" stop-color="#F2A7A7"/>
</linearGradient>
<linearGradient id="paint15_linear_2_5188" x1="-51.5005" y1="38" x2="55.4248" y2="133.658" gradientUnits="userSpaceOnUse">
<stop stop-color="#153042"/>
<stop offset="0.5" stop-color="#939FE1"/>
<stop offset="0.989583" stop-color="#F2A7A7"/>
</linearGradient>
<linearGradient id="paint16_linear_2_5188" x1="-51.5005" y1="38" x2="55.4248" y2="133.658" gradientUnits="userSpaceOnUse">
<stop stop-color="#153042"/>
<stop offset="0.5" stop-color="#939FE1"/>
<stop offset="0.989583" stop-color="#F2A7A7"/>
</linearGradient>
</defs>
</svg>
