<svg width="281" height="357" viewBox="0 0 281 357" fill="none" xmlns="http://www.w3.org/2000/svg">
<path fill-rule="evenodd" clip-rule="evenodd" d="M161.408 16C161.408 7.16344 154.244 0 145.408 0H16C7.16344 0 0 7.16344 0 16V220.848C0 229.685 7.16344 236.848 16 236.848H117.337C126.173 236.848 133.337 244.012 133.337 252.849V340.441C133.337 349.277 140.5 356.441 149.337 356.441H265C273.837 356.441 281 349.277 281 340.441V224.778C281 215.941 273.837 208.778 265 208.778H177.408C168.571 208.778 161.408 201.614 161.408 192.778V16Z" fill="#DEFF8A"/>
</svg>
